# xmcd
#
# Track frame offsets: 
#        150
#        11994
#        25824
#        37890
#        48788
#        61925
#        79701
#        91116
#        103867
#        117214
#
# Disc length: 1792 seconds
#
# Revision: 5
# Processed by: cddbd v1.5.1PL0 Copyright (c) Steve Scherf et al.
# Submitted via: ExactAudioCopy v0.95a5
#
DISCID=6f06fe0a
DTITLE=Various Artist - Midnight Blues
DYEAR=1998
DGENRE=Blues
TTITLE0=B. B. King - Payin' the Cost To Be the Boss
TTITLE1=Leadbelly - The Bourgeois Blues
TTITLE2=Lightnin' Hopkins - Lonesome Dog
TTITLE3=Billie Holiday - I Got It Bad and That Ain't Good
TTITLE4=Dinah Washington - Begging Mamma Blues
TTITLE5=John Mayall - Mamma Talk To Your Daughter
TTITLE6=John Lee Hooker - Boom Boom
TTITLE7=Eddie "Clean Head" Vinson - Alimony Blues
TTITLE8=Elmore James - Dust My Broom
TTITLE9=Charles Brown - Driftin' Blues
EXTD=LABEL =Direct Source Special Products Inc.\nID =bc75982\nUPC =
EXTD=779836-759825\nCOPYRIGHT =1998\n*****\nYEAR: 2001\nID3G:   0
EXTT0=
EXTT1=
EXTT2=
EXTT3=
EXTT4=
EXTT5=
EXTT6=
EXTT7=
EXTT8=
EXTT9=
PLAYORDER=
